<?xml version="1.0" encoding="UTF-8"?><svg xmlns="http://www.w3.org/2000/svg" xmlns:xlink="http://www.w3.org/1999/xlink" fill-opacity="1" color-rendering="auto" color-interpolation="auto" text-rendering="auto" stroke="black" stroke-linecap="square" width="311" stroke-miterlimit="10" shape-rendering="auto" stroke-opacity="1" fill="black" stroke-dasharray="none" font-weight="normal" stroke-width="1" height="275" font-family="'Dialog'" font-style="normal" stroke-linejoin="miter" font-size="12px" stroke-dashoffset="0" image-rendering="auto">
  <!--Generated by ySVG 2.5-->
  <defs id="genericDefs"/>
  <g>
    <defs id="defs1">
      <clipPath clipPathUnits="userSpaceOnUse" id="clipPath1">
        <path d="M0 0 L311 0 L311 275 L0 275 L0 0 Z"/>
      </clipPath>
      <clipPath clipPathUnits="userSpaceOnUse" id="clipPath2">
        <path d="M-18 -15 L293 -15 L293 260 L-18 260 L-18 -15 Z"/>
      </clipPath>
    </defs>
    <g fill="rgb(255,204,0)" text-rendering="geometricPrecision" shape-rendering="geometricPrecision" transform="matrix(1,0,0,1,18,15)" stroke="rgb(255,204,0)">
      <rect x="0" width="45" height="45" y="0" clip-path="url(#clipPath2)" stroke="none"/>
    </g>
    <g text-rendering="geometricPrecision" stroke-miterlimit="1.45" shape-rendering="geometricPrecision" transform="matrix(1,0,0,1,18,15)" stroke-linecap="butt">
      <rect fill="none" x="0" width="45" height="45" y="0" clip-path="url(#clipPath2)"/>
      <text x="16.3433" font-size="18px" y="28.7314" clip-path="url(#clipPath2)" font-family="sans-serif" stroke="none" xml:space="preserve">A</text>
    </g>
    <g fill="rgb(255,204,0)" text-rendering="geometricPrecision" shape-rendering="geometricPrecision" transform="matrix(1,0,0,1,18,15)" stroke="rgb(255,204,0)">
      <rect x="200" width="45" height="45" y="0" clip-path="url(#clipPath2)" stroke="none"/>
    </g>
    <g text-rendering="geometricPrecision" stroke-miterlimit="1.45" shape-rendering="geometricPrecision" transform="matrix(1,0,0,1,18,15)" stroke-linecap="butt">
      <rect fill="none" x="200" width="45" height="45" y="0" clip-path="url(#clipPath2)"/>
      <text x="216.3257" font-size="18px" y="28.7314" clip-path="url(#clipPath2)" font-family="sans-serif" stroke="none" xml:space="preserve">B</text>
    </g>
    <g fill="rgb(255,204,0)" text-rendering="geometricPrecision" shape-rendering="geometricPrecision" transform="matrix(1,0,0,1,18,15)" stroke="rgb(255,204,0)">
      <rect x="0" width="45" height="45" y="200" clip-path="url(#clipPath2)" stroke="none"/>
    </g>
    <g text-rendering="geometricPrecision" stroke-miterlimit="1.45" shape-rendering="geometricPrecision" transform="matrix(1,0,0,1,18,15)" stroke-linecap="butt">
      <rect fill="none" x="0" width="45" height="45" y="200" clip-path="url(#clipPath2)"/>
      <text x="16.2158" font-size="18px" y="228.7314" clip-path="url(#clipPath2)" font-family="sans-serif" stroke="none" xml:space="preserve">C</text>
    </g>
    <g fill="rgb(255,204,0)" text-rendering="geometricPrecision" shape-rendering="geometricPrecision" transform="matrix(1,0,0,1,18,15)" stroke="rgb(255,204,0)">
      <rect x="200" width="45" height="45" y="200" clip-path="url(#clipPath2)" stroke="none"/>
    </g>
    <g text-rendering="geometricPrecision" stroke-miterlimit="1.45" shape-rendering="geometricPrecision" transform="matrix(1,0,0,1,18,15)" stroke-linecap="butt">
      <rect fill="none" x="200" width="45" height="45" y="200" clip-path="url(#clipPath2)"/>
      <text x="215.5698" font-size="18px" y="228.7314" clip-path="url(#clipPath2)" font-family="sans-serif" stroke="none" xml:space="preserve">D</text>
    </g>
    <g fill="rgb(0,204,255)" text-rendering="geometricPrecision" shape-rendering="geometricPrecision" transform="matrix(1,0,0,1,18,15)" stroke="rgb(0,204,255)">
      <rect x="-2.5" width="50" height="20" y="111.5" clip-path="url(#clipPath2)" stroke="none"/>
    </g>
    <g text-rendering="geometricPrecision" stroke-miterlimit="1.45" shape-rendering="geometricPrecision" transform="matrix(1,0,0,1,18,15)" stroke-linecap="butt">
      <rect fill="none" x="-2.5" width="50" height="20" y="111.5" clip-path="url(#clipPath2)"/>
      <text x="2.8857" xml:space="preserve" y="125.6543" clip-path="url(#clipPath2)" font-family="sans-serif" stroke="none">socket</text>
    </g>
    <g fill="rgb(0,204,255)" text-rendering="geometricPrecision" shape-rendering="geometricPrecision" transform="matrix(1,0,0,1,18,15)" stroke="rgb(0,204,255)">
      <rect x="167.5" width="110" height="30" y="106.5" clip-path="url(#clipPath2)" stroke="none"/>
    </g>
    <g text-rendering="geometricPrecision" stroke-miterlimit="1.45" shape-rendering="geometricPrecision" transform="matrix(1,0,0,1,18,15)" stroke-linecap="butt">
      <rect fill="none" x="167.5" width="110" height="30" y="106.5" clip-path="url(#clipPath2)"/>
      <text x="170.627" xml:space="preserve" y="118.6699" clip-path="url(#clipPath2)" font-family="sans-serif" stroke="none">memory-mapped</text>
      <text x="213.3623" xml:space="preserve" y="132.6387" clip-path="url(#clipPath2)" font-family="sans-serif" stroke="none">file</text>
    </g>
    <g fill="rgb(0,204,255)" text-rendering="geometricPrecision" shape-rendering="geometricPrecision" transform="matrix(1,0,0,1,18,15)" stroke="rgb(0,204,255)">
      <rect x="82.5" width="80" height="30" y="7.5" clip-path="url(#clipPath2)" stroke="none"/>
    </g>
    <g text-rendering="geometricPrecision" stroke-miterlimit="1.45" shape-rendering="geometricPrecision" transform="matrix(1,0,0,1,18,15)" stroke-linecap="butt">
      <rect fill="none" x="82.5" width="80" height="30" y="7.5" clip-path="url(#clipPath2)"/>
      <text x="101.9277" xml:space="preserve" y="19.6699" clip-path="url(#clipPath2)" font-family="sans-serif" stroke="none">shared</text>
      <text x="97.4307" xml:space="preserve" y="33.6387" clip-path="url(#clipPath2)" font-family="sans-serif" stroke="none">memory</text>
    </g>
    <g fill="rgb(0,204,255)" text-rendering="geometricPrecision" shape-rendering="geometricPrecision" transform="matrix(1,0,0,1,18,15)" stroke="rgb(0,204,255)">
      <rect x="97.5" width="50" height="20" y="200" clip-path="url(#clipPath2)" stroke="none"/>
    </g>
    <g text-rendering="geometricPrecision" stroke-miterlimit="1.45" shape-rendering="geometricPrecision" transform="matrix(1,0,0,1,18,15)" stroke-linecap="butt">
      <rect fill="none" x="97.5" width="50" height="20" y="200" clip-path="url(#clipPath2)"/>
      <text x="109.5244" xml:space="preserve" y="214.1543" clip-path="url(#clipPath2)" font-family="sans-serif" stroke="none">pipe</text>
    </g>
    <g fill="rgb(0,204,255)" text-rendering="geometricPrecision" shape-rendering="geometricPrecision" transform="matrix(1,0,0,1,18,15)" stroke="rgb(0,204,255)">
      <rect x="97.5" width="50" height="20" y="225" clip-path="url(#clipPath2)" stroke="none"/>
    </g>
    <g text-rendering="geometricPrecision" stroke-miterlimit="1.45" shape-rendering="geometricPrecision" transform="matrix(1,0,0,1,18,15)" stroke-linecap="butt">
      <rect fill="none" x="97.5" width="50" height="20" y="225" clip-path="url(#clipPath2)"/>
      <text x="109.5244" xml:space="preserve" y="239.1543" clip-path="url(#clipPath2)" font-family="sans-serif" stroke="none">pipe</text>
      <path fill="none" d="M22.5 45 L22.5 103.5" clip-path="url(#clipPath2)" stroke="gray"/>
      <path fill="gray" d="M22.5 111.5 L27.5 99.5 L22.5 102.5 L17.5 99.5 Z" clip-path="url(#clipPath2)" stroke="none"/>
      <path fill="none" d="M22.5 200 L22.5 139.5" clip-path="url(#clipPath2)" stroke="gray"/>
      <path fill="gray" d="M22.5 131.5 L17.5 143.5 L22.5 140.5 L27.5 143.5 Z" clip-path="url(#clipPath2)" stroke="none"/>
      <path fill="none" d="M222.5 45 L222.5 98.5" clip-path="url(#clipPath2)" stroke="gray"/>
      <path fill="gray" d="M222.5 106.5 L227.5 94.5 L222.5 97.5 L217.5 94.5 Z" clip-path="url(#clipPath2)" stroke="none"/>
      <path fill="none" d="M222.5 200 L222.5 144.5" clip-path="url(#clipPath2)" stroke="gray"/>
      <path fill="gray" d="M222.5 136.5 L217.5 148.5 L222.5 145.5 L227.5 148.5 Z" clip-path="url(#clipPath2)" stroke="none"/>
      <path fill="none" d="M45 37.8621 L160.8632 116.9686" clip-path="url(#clipPath2)" stroke="gray"/>
      <path fill="gray" d="M167.4701 121.4796 L160.379 110.5838 L160.0373 116.4048 L154.7404 118.8425 Z" clip-path="url(#clipPath2)" stroke="none"/>
      <path fill="none" d="M45 22.5 L74.5 22.5" clip-path="url(#clipPath2)" stroke="gray"/>
      <path fill="gray" d="M82.5 22.5 L70.5 17.5 L73.5 22.5 L70.5 27.5 Z" clip-path="url(#clipPath2)" stroke="none"/>
      <path fill="none" d="M200 22.5 L170.5 22.5" clip-path="url(#clipPath2)" stroke="gray"/>
      <path fill="gray" d="M162.5 22.5 L174.5 27.5 L171.5 22.5 L174.5 17.5 Z" clip-path="url(#clipPath2)" stroke="none"/>
      <path fill="none" d="M33.75 200 L111.4223 44.6554" clip-path="url(#clipPath2)" stroke="gray"/>
      <path fill="gray" d="M115 37.5 L105.1613 45.9971 L110.9751 45.5498 L114.1056 50.4692 Z" clip-path="url(#clipPath2)" stroke="none"/>
      <path fill="none" d="M200.0135 210 L147.5 210" clip-path="url(#clipPath2)" stroke="gray"/>
      <path fill="none" d="M97.5 210 L52.9827 210" clip-path="url(#clipPath2)" stroke="gray"/>
      <path fill="gray" d="M44.9827 210 L56.9827 215 L53.9827 210 L56.9827 205 Z" clip-path="url(#clipPath2)" stroke="none"/>
      <path fill="none" d="M45.0032 235 L97.5 235" clip-path="url(#clipPath2)" stroke="gray"/>
      <path fill="none" d="M147.5 235 L191.9676 235" clip-path="url(#clipPath2)" stroke="gray"/>
      <path fill="gray" d="M199.9676 235 L187.9676 230 L190.9676 235 L187.9676 240 Z" clip-path="url(#clipPath2)" stroke="none"/>
    </g>
  </g>
</svg>
