<?xml version="1.0" encoding="UTF-8"?><svg xmlns="http://www.w3.org/2000/svg" xmlns:xlink="http://www.w3.org/1999/xlink" fill-opacity="1" color-rendering="auto" color-interpolation="auto" text-rendering="auto" stroke="black" stroke-linecap="square" width="275" stroke-miterlimit="10" shape-rendering="auto" stroke-opacity="1" fill="black" stroke-dasharray="none" font-weight="normal" stroke-width="1" height="275" font-family="'Dialog'" font-style="normal" stroke-linejoin="miter" font-size="12px" stroke-dashoffset="0" image-rendering="auto">
  <!--Generated by ySVG 2.5-->
  <defs id="genericDefs"/>
  <g>
    <defs id="defs1">
      <clipPath clipPathUnits="userSpaceOnUse" id="clipPath1">
        <path d="M0 0 L275 0 L275 275 L0 275 L0 0 Z"/>
      </clipPath>
      <clipPath clipPathUnits="userSpaceOnUse" id="clipPath2">
        <path d="M-15 -15 L260 -15 L260 260 L-15 260 L-15 -15 Z"/>
      </clipPath>
    </defs>
    <g fill="rgb(255,204,0)" text-rendering="geometricPrecision" shape-rendering="geometricPrecision" transform="matrix(1,0,0,1,15,15)" stroke="rgb(255,204,0)">
      <rect x="0" width="45" height="45" y="0" clip-path="url(#clipPath2)" stroke="none"/>
    </g>
    <g text-rendering="geometricPrecision" stroke-miterlimit="1.45" shape-rendering="geometricPrecision" transform="matrix(1,0,0,1,15,15)" stroke-linecap="butt">
      <rect fill="none" x="0" width="45" height="45" y="0" clip-path="url(#clipPath2)"/>
      <text x="16.3433" font-size="18px" y="28.7314" clip-path="url(#clipPath2)" font-family="sans-serif" stroke="none" xml:space="preserve">A</text>
    </g>
    <g fill="rgb(255,204,0)" text-rendering="geometricPrecision" shape-rendering="geometricPrecision" transform="matrix(1,0,0,1,15,15)" stroke="rgb(255,204,0)">
      <rect x="200" width="45" height="45" y="0" clip-path="url(#clipPath2)" stroke="none"/>
    </g>
    <g text-rendering="geometricPrecision" stroke-miterlimit="1.45" shape-rendering="geometricPrecision" transform="matrix(1,0,0,1,15,15)" stroke-linecap="butt">
      <rect fill="none" x="200" width="45" height="45" y="0" clip-path="url(#clipPath2)"/>
      <text x="216.3257" font-size="18px" y="28.7314" clip-path="url(#clipPath2)" font-family="sans-serif" stroke="none" xml:space="preserve">B</text>
    </g>
    <g fill="rgb(255,204,0)" text-rendering="geometricPrecision" shape-rendering="geometricPrecision" transform="matrix(1,0,0,1,15,15)" stroke="rgb(255,204,0)">
      <rect x="0" width="45" height="45" y="200" clip-path="url(#clipPath2)" stroke="none"/>
    </g>
    <g text-rendering="geometricPrecision" stroke-miterlimit="1.45" shape-rendering="geometricPrecision" transform="matrix(1,0,0,1,15,15)" stroke-linecap="butt">
      <rect fill="none" x="0" width="45" height="45" y="200" clip-path="url(#clipPath2)"/>
      <text x="16.2158" font-size="18px" y="228.7314" clip-path="url(#clipPath2)" font-family="sans-serif" stroke="none" xml:space="preserve">C</text>
    </g>
    <g fill="rgb(255,204,0)" text-rendering="geometricPrecision" shape-rendering="geometricPrecision" transform="matrix(1,0,0,1,15,15)" stroke="rgb(255,204,0)">
      <rect x="200" width="45" height="45" y="200" clip-path="url(#clipPath2)" stroke="none"/>
    </g>
    <g text-rendering="geometricPrecision" stroke-miterlimit="1.45" shape-rendering="geometricPrecision" transform="matrix(1,0,0,1,15,15)" stroke-linecap="butt">
      <rect fill="none" x="200" width="45" height="45" y="200" clip-path="url(#clipPath2)"/>
      <text x="215.5698" font-size="18px" y="228.7314" clip-path="url(#clipPath2)" font-family="sans-serif" stroke="none" xml:space="preserve">D</text>
    </g>
    <g fill="rgb(0,204,255)" text-rendering="geometricPrecision" shape-rendering="geometricPrecision" transform="matrix(1,0,0,1,15,15)" stroke="rgb(0,204,255)">
      <rect x="45" width="155" height="25" y="110" clip-path="url(#clipPath2)" stroke="none"/>
    </g>
    <g text-rendering="geometricPrecision" stroke-miterlimit="1.45" shape-rendering="geometricPrecision" transform="matrix(1,0,0,1,15,15)" stroke-linecap="butt">
      <rect fill="none" x="45" width="155" height="25" y="110" clip-path="url(#clipPath2)"/>
      <text x="95.7549" font-size="18px" y="128.7314" clip-path="url(#clipPath2)" font-family="sans-serif" stroke="none" xml:space="preserve">D-Bus</text>
      <path fill="none" d="M56 222.5 L77.5 222.5 L77.5 145.9512" clip-path="url(#clipPath2)" stroke="gray"/>
      <path fill="gray" d="M45 222.5 L57 228.5 L57 216.5 Z" clip-path="url(#clipPath2)" stroke="none"/>
      <path fill="gray" d="M77.5 134.9512 L71.5 146.9512 L83.5 146.9512 Z" clip-path="url(#clipPath2)" stroke="none"/>
      <path fill="none" d="M56 22.5 L77.5 22.5 L77.5 98.9512" clip-path="url(#clipPath2)" stroke="gray"/>
      <path fill="gray" d="M45 22.5 L57 28.5 L57 16.5 Z" clip-path="url(#clipPath2)" stroke="none"/>
      <path fill="gray" d="M77.5 109.9512 L83.5 97.9512 L71.5 97.9512 Z" clip-path="url(#clipPath2)" stroke="none"/>
      <path fill="none" d="M189 22.5 L167.5 22.5 L167.5 99.0252" clip-path="url(#clipPath2)" stroke="gray"/>
      <path fill="gray" d="M200 22.5 L188 16.5 L188 28.5 Z" clip-path="url(#clipPath2)" stroke="none"/>
      <path fill="gray" d="M167.5 110.0252 L173.5 98.0252 L161.5 98.0252 Z" clip-path="url(#clipPath2)" stroke="none"/>
      <path fill="none" d="M189 222.5 L167.5 222.5 L167.5 146.0369" clip-path="url(#clipPath2)" stroke="gray"/>
      <path fill="gray" d="M200 222.5 L188 216.5 L188 228.5 Z" clip-path="url(#clipPath2)" stroke="none"/>
      <path fill="gray" d="M167.5 135.0369 L161.5 147.0369 L173.5 147.0369 Z" clip-path="url(#clipPath2)" stroke="none"/>
    </g>
  </g>
</svg>
